<mxfile host="Electron" modified="2024-01-09T18:36:52.602Z" agent="Mozilla/5.0 (X11; Linux x86_64) AppleWebKit/537.36 (KHTML, like Gecko) draw.io/22.1.16 Chrome/120.0.6099.109 Electron/28.1.0 Safari/537.36" etag="PKd8sdHaBW9AxW85Hjeg" version="22.1.16" type="device">
  <diagram id="-jloQYBRYK6Awh3fImPs" name="Página-1">
    <mxGraphModel dx="2022" dy="1872" grid="1" gridSize="10" guides="1" tooltips="1" connect="1" arrows="1" fold="1" page="1" pageScale="1" pageWidth="827" pageHeight="1169" math="0" shadow="0">
      <root>
        <mxCell id="0" />
        <mxCell id="1" parent="0" />
        <mxCell id="XlQ_gyAynb_7siddWxOq-5" value="MQTT Broker Cluster" style="verticalAlign=top;align=left;spacingTop=8;spacingLeft=2;spacingRight=12;shape=cube;size=10;direction=south;fontStyle=4;html=1;whiteSpace=wrap;" parent="1" vertex="1">
          <mxGeometry x="-40" y="120" width="160" height="290" as="geometry" />
        </mxCell>
        <mxCell id="bxP-EH-jp1SR5SKdyFND-36" value="Remote Status Station 1" style="verticalAlign=top;align=left;spacingTop=8;spacingLeft=2;spacingRight=12;shape=cube;size=10;direction=south;fontStyle=4;html=1;whiteSpace=wrap;" parent="1" vertex="1">
          <mxGeometry x="-380" y="120" width="280" height="290" as="geometry" />
        </mxCell>
        <mxCell id="bxP-EH-jp1SR5SKdyFND-11" value="WPS 1" style="verticalAlign=top;align=left;spacingTop=8;spacingLeft=2;spacingRight=12;shape=cube;size=10;direction=south;fontStyle=4;html=1;whiteSpace=wrap;" parent="1" vertex="1">
          <mxGeometry x="180" y="120" width="400" height="470" as="geometry" />
        </mxCell>
        <mxCell id="bxP-EH-jp1SR5SKdyFND-32" style="edgeStyle=orthogonalEdgeStyle;rounded=0;orthogonalLoop=1;jettySize=auto;html=1;endArrow=block;endFill=1;" parent="1" source="bxP-EH-jp1SR5SKdyFND-1" target="bxP-EH-jp1SR5SKdyFND-8" edge="1">
          <mxGeometry relative="1" as="geometry" />
        </mxCell>
        <mxCell id="bxP-EH-jp1SR5SKdyFND-33" style="edgeStyle=orthogonalEdgeStyle;rounded=0;orthogonalLoop=1;jettySize=auto;html=1;endArrow=block;endFill=1;" parent="1" source="bxP-EH-jp1SR5SKdyFND-1" target="bxP-EH-jp1SR5SKdyFND-9" edge="1">
          <mxGeometry relative="1" as="geometry" />
        </mxCell>
        <mxCell id="bxP-EH-jp1SR5SKdyFND-1" value="Control Unit Cluster" style="verticalAlign=top;align=left;spacingTop=8;spacingLeft=2;spacingRight=12;shape=cube;size=10;direction=south;fontStyle=4;html=1;whiteSpace=wrap;" parent="1" vertex="1">
          <mxGeometry x="220" y="325" width="320" height="135" as="geometry" />
        </mxCell>
        <mxCell id="bxP-EH-jp1SR5SKdyFND-3" value="«&lt;span style=&quot;background-color: initial;&quot;&gt;device&lt;/span&gt;»" style="verticalAlign=top;align=left;spacingTop=8;spacingLeft=2;spacingRight=12;shape=cube;size=10;direction=south;fontStyle=4;html=1;whiteSpace=wrap;fillColor=#dae8fc;strokeColor=#6c8ebf;" parent="1" vertex="1">
          <mxGeometry x="220" y="180" width="140" height="100" as="geometry" />
        </mxCell>
        <mxCell id="bxP-EH-jp1SR5SKdyFND-4" value="«artifact»&lt;br&gt;&lt;b&gt;Water Level Sensor 1 Sim&lt;/b&gt;" style="html=1;whiteSpace=wrap;" parent="1" vertex="1">
          <mxGeometry x="229.5" y="220" width="110" height="50" as="geometry" />
        </mxCell>
        <mxCell id="bxP-EH-jp1SR5SKdyFND-5" value="«&lt;span style=&quot;background-color: initial;&quot;&gt;device&lt;/span&gt;»" style="verticalAlign=top;align=left;spacingTop=8;spacingLeft=2;spacingRight=12;shape=cube;size=10;direction=south;fontStyle=4;html=1;whiteSpace=wrap;fillColor=#dae8fc;strokeColor=#6c8ebf;" parent="1" vertex="1">
          <mxGeometry x="400" y="180" width="140" height="100" as="geometry" />
        </mxCell>
        <mxCell id="bxP-EH-jp1SR5SKdyFND-6" value="«artifact»&lt;br&gt;&lt;b&gt;Water Level Sensor 2 Sim&lt;/b&gt;" style="html=1;whiteSpace=wrap;" parent="1" vertex="1">
          <mxGeometry x="409.5" y="220" width="110" height="50" as="geometry" />
        </mxCell>
        <mxCell id="bxP-EH-jp1SR5SKdyFND-8" value="«device»&lt;br&gt;&lt;b&gt;Pump 1 Led&lt;/b&gt;" style="html=1;whiteSpace=wrap;" parent="1" vertex="1">
          <mxGeometry x="220" y="520" width="140" height="50" as="geometry" />
        </mxCell>
        <mxCell id="bxP-EH-jp1SR5SKdyFND-9" value="«device»&lt;br&gt;&lt;b&gt;Pump 2 Led&lt;/b&gt;" style="html=1;whiteSpace=wrap;" parent="1" vertex="1">
          <mxGeometry x="400" y="520" width="140" height="50" as="geometry" />
        </mxCell>
        <mxCell id="bxP-EH-jp1SR5SKdyFND-12" value="WPS 2" style="verticalAlign=top;align=left;spacingTop=8;spacingLeft=2;spacingRight=12;shape=cube;size=10;direction=south;fontStyle=4;html=1;whiteSpace=wrap;" parent="1" vertex="1">
          <mxGeometry x="180" y="-20" width="400" height="120" as="geometry" />
        </mxCell>
        <mxCell id="bxP-EH-jp1SR5SKdyFND-29" style="edgeStyle=orthogonalEdgeStyle;rounded=0;orthogonalLoop=1;jettySize=auto;html=1;entryX=0;entryY=0;entryDx=100;entryDy=75;entryPerimeter=0;endArrow=block;endFill=1;" parent="1" source="bxP-EH-jp1SR5SKdyFND-1" target="bxP-EH-jp1SR5SKdyFND-3" edge="1">
          <mxGeometry relative="1" as="geometry" />
        </mxCell>
        <mxCell id="bxP-EH-jp1SR5SKdyFND-31" value="MQTT" style="edgeLabel;html=1;align=center;verticalAlign=middle;resizable=0;points=[];labelBackgroundColor=none;" parent="bxP-EH-jp1SR5SKdyFND-29" vertex="1" connectable="0">
          <mxGeometry x="-0.3452" y="2" relative="1" as="geometry">
            <mxPoint x="23" y="-14" as="offset" />
          </mxGeometry>
        </mxCell>
        <mxCell id="bxP-EH-jp1SR5SKdyFND-30" style="edgeStyle=orthogonalEdgeStyle;rounded=0;orthogonalLoop=1;jettySize=auto;html=1;entryX=0;entryY=0;entryDx=100;entryDy=75;entryPerimeter=0;endArrow=block;endFill=1;" parent="1" source="bxP-EH-jp1SR5SKdyFND-1" target="bxP-EH-jp1SR5SKdyFND-5" edge="1">
          <mxGeometry relative="1" as="geometry" />
        </mxCell>
        <mxCell id="bxP-EH-jp1SR5SKdyFND-50" style="edgeStyle=orthogonalEdgeStyle;rounded=0;orthogonalLoop=1;jettySize=auto;html=1;entryX=1;entryY=0.5;entryDx=0;entryDy=0;endArrow=block;endFill=1;" parent="1" source="bxP-EH-jp1SR5SKdyFND-37" target="bxP-EH-jp1SR5SKdyFND-42" edge="1">
          <mxGeometry relative="1" as="geometry">
            <Array as="points">
              <mxPoint x="-265" y="290" />
              <mxPoint x="-265" y="200" />
            </Array>
          </mxGeometry>
        </mxCell>
        <mxCell id="bxP-EH-jp1SR5SKdyFND-51" style="edgeStyle=orthogonalEdgeStyle;rounded=0;orthogonalLoop=1;jettySize=auto;html=1;entryX=1;entryY=0.5;entryDx=0;entryDy=0;endArrow=block;endFill=1;" parent="1" source="bxP-EH-jp1SR5SKdyFND-37" target="bxP-EH-jp1SR5SKdyFND-41" edge="1">
          <mxGeometry relative="1" as="geometry" />
        </mxCell>
        <mxCell id="bxP-EH-jp1SR5SKdyFND-52" style="edgeStyle=orthogonalEdgeStyle;rounded=0;orthogonalLoop=1;jettySize=auto;html=1;entryX=1;entryY=0.5;entryDx=0;entryDy=0;endArrow=block;endFill=1;" parent="1" source="bxP-EH-jp1SR5SKdyFND-37" target="bxP-EH-jp1SR5SKdyFND-40" edge="1">
          <mxGeometry relative="1" as="geometry" />
        </mxCell>
        <mxCell id="bxP-EH-jp1SR5SKdyFND-54" style="edgeStyle=orthogonalEdgeStyle;rounded=0;orthogonalLoop=1;jettySize=auto;html=1;entryX=1;entryY=0.5;entryDx=0;entryDy=0;endArrow=block;endFill=1;" parent="1" source="bxP-EH-jp1SR5SKdyFND-37" target="bxP-EH-jp1SR5SKdyFND-39" edge="1">
          <mxGeometry relative="1" as="geometry" />
        </mxCell>
        <mxCell id="bxP-EH-jp1SR5SKdyFND-37" value="«&lt;span style=&quot;background-color: initial;&quot;&gt;device&lt;/span&gt;»" style="verticalAlign=top;align=left;spacingTop=8;spacingLeft=2;spacingRight=12;shape=cube;size=10;direction=south;fontStyle=4;html=1;whiteSpace=wrap;fillColor=#fff2cc;strokeColor=#d6b656;" parent="1" vertex="1">
          <mxGeometry x="-245" y="180" width="115" height="220" as="geometry" />
        </mxCell>
        <mxCell id="bxP-EH-jp1SR5SKdyFND-38" value="«artifact»&lt;br&gt;&lt;b&gt;Remote Status &lt;br&gt;Station&lt;br&gt;&lt;/b&gt;" style="html=1;whiteSpace=wrap;" parent="1" vertex="1">
          <mxGeometry x="-232.5" y="220" width="82.5" height="170" as="geometry" />
        </mxCell>
        <mxCell id="bxP-EH-jp1SR5SKdyFND-39" value="«device»&lt;br&gt;&lt;b&gt;Water Level status&lt;/b&gt;" style="html=1;whiteSpace=wrap;" parent="1" vertex="1">
          <mxGeometry x="-360" y="360" width="75" height="40" as="geometry" />
        </mxCell>
        <mxCell id="bxP-EH-jp1SR5SKdyFND-40" value="«device»&lt;br&gt;&lt;b&gt;Pump status&lt;/b&gt;" style="html=1;whiteSpace=wrap;" parent="1" vertex="1">
          <mxGeometry x="-360" y="300" width="75" height="40" as="geometry" />
        </mxCell>
        <mxCell id="bxP-EH-jp1SR5SKdyFND-41" value="«device»&lt;br&gt;&lt;b&gt;Alarm&lt;/b&gt;" style="html=1;whiteSpace=wrap;" parent="1" vertex="1">
          <mxGeometry x="-360" y="240" width="75" height="40" as="geometry" />
        </mxCell>
        <mxCell id="bxP-EH-jp1SR5SKdyFND-42" value="«device»&lt;br&gt;&lt;b&gt;Button&lt;/b&gt;" style="html=1;whiteSpace=wrap;" parent="1" vertex="1">
          <mxGeometry x="-360" y="180" width="75" height="40" as="geometry" />
        </mxCell>
        <mxCell id="bxP-EH-jp1SR5SKdyFND-57" value="Remote Status Station 2" style="verticalAlign=top;align=left;spacingTop=8;spacingLeft=2;spacingRight=12;shape=cube;size=10;direction=south;fontStyle=4;html=1;whiteSpace=wrap;" parent="1" vertex="1">
          <mxGeometry x="-380" y="-20" width="280" height="120" as="geometry" />
        </mxCell>
        <mxCell id="bxP-EH-jp1SR5SKdyFND-61" value="WPS Status Website" style="verticalAlign=top;align=left;spacingTop=8;spacingLeft=2;spacingRight=12;shape=cube;size=10;direction=south;fontStyle=4;html=1;whiteSpace=wrap;" parent="1" vertex="1">
          <mxGeometry x="-380" y="440" width="280" height="150" as="geometry" />
        </mxCell>
        <mxCell id="bxP-EH-jp1SR5SKdyFND-63" value="«&lt;span style=&quot;background-color: initial;&quot;&gt;device&lt;/span&gt;»" style="verticalAlign=top;align=left;spacingTop=8;spacingLeft=2;spacingRight=12;shape=cube;size=10;direction=south;fontStyle=4;html=1;whiteSpace=wrap;fillColor=#ffe6cc;strokeColor=#d79b00;" parent="1" vertex="1">
          <mxGeometry x="-340" y="480" width="210" height="100" as="geometry" />
        </mxCell>
        <mxCell id="bxP-EH-jp1SR5SKdyFND-64" value="«artifact»&lt;br&gt;&lt;b&gt;HTTP Server&lt;/b&gt;" style="html=1;whiteSpace=wrap;" parent="1" vertex="1">
          <mxGeometry x="-240" y="520" width="90" height="50" as="geometry" />
        </mxCell>
        <mxCell id="bxP-EH-jp1SR5SKdyFND-70" value="«&lt;span style=&quot;border-color: var(--border-color); color: rgb(0, 0, 0); background-color: initial;&quot;&gt;device&lt;/span&gt;&lt;span style=&quot;color: rgb(0, 0, 0);&quot;&gt;»&lt;br&gt;:Browser&lt;br&gt;&lt;/span&gt;" style="verticalAlign=top;align=left;spacingTop=8;spacingLeft=2;spacingRight=12;shape=cube;size=10;direction=south;fontStyle=4;html=1;whiteSpace=wrap;" parent="1" vertex="1">
          <mxGeometry x="-600" y="440" width="160" height="150" as="geometry" />
        </mxCell>
        <mxCell id="bxP-EH-jp1SR5SKdyFND-71" value="«artifact»&lt;br&gt;&lt;b&gt;Firefox&lt;/b&gt;" style="html=1;whiteSpace=wrap;" parent="1" vertex="1">
          <mxGeometry x="-580" y="500" width="110" height="80" as="geometry" />
        </mxCell>
        <mxCell id="bxP-EH-jp1SR5SKdyFND-73" style="edgeStyle=orthogonalEdgeStyle;rounded=0;orthogonalLoop=1;jettySize=auto;html=1;entryX=0;entryY=0.5;entryDx=0;entryDy=0;endArrow=block;endFill=1;" parent="1" source="bxP-EH-jp1SR5SKdyFND-70" target="bxP-EH-jp1SR5SKdyFND-75" edge="1">
          <mxGeometry relative="1" as="geometry">
            <Array as="points">
              <mxPoint x="-390" y="545" />
              <mxPoint x="-390" y="545" />
            </Array>
          </mxGeometry>
        </mxCell>
        <mxCell id="bxP-EH-jp1SR5SKdyFND-74" value="HTTP" style="edgeLabel;html=1;align=center;verticalAlign=middle;resizable=0;points=[];" parent="bxP-EH-jp1SR5SKdyFND-73" vertex="1" connectable="0">
          <mxGeometry x="-0.35" y="-2" relative="1" as="geometry">
            <mxPoint x="-6" y="-17" as="offset" />
          </mxGeometry>
        </mxCell>
        <mxCell id="bxP-EH-jp1SR5SKdyFND-76" style="edgeStyle=orthogonalEdgeStyle;rounded=0;orthogonalLoop=1;jettySize=auto;html=1;entryX=0;entryY=0.5;entryDx=0;entryDy=0;endArrow=none;endFill=0;" parent="1" source="bxP-EH-jp1SR5SKdyFND-75" target="bxP-EH-jp1SR5SKdyFND-64" edge="1">
          <mxGeometry relative="1" as="geometry" />
        </mxCell>
        <mxCell id="bxP-EH-jp1SR5SKdyFND-75" value="" style="ellipse;whiteSpace=wrap;html=1;aspect=fixed;strokeWidth=2;" parent="1" vertex="1">
          <mxGeometry x="-320" y="532.5" width="25" height="25" as="geometry" />
        </mxCell>
        <mxCell id="XlQ_gyAynb_7siddWxOq-1" value="«&lt;span style=&quot;background-color: initial;&quot;&gt;device&lt;/span&gt;»" style="verticalAlign=top;align=left;spacingTop=8;spacingLeft=2;spacingRight=12;shape=cube;size=10;direction=south;fontStyle=4;html=1;whiteSpace=wrap;" parent="1" vertex="1">
          <mxGeometry x="-20" y="182.5" width="110" height="100" as="geometry" />
        </mxCell>
        <mxCell id="XlQ_gyAynb_7siddWxOq-2" value="«artifact»&lt;br&gt;&lt;b&gt;MQTT Broker&lt;/b&gt;" style="html=1;whiteSpace=wrap;" parent="1" vertex="1">
          <mxGeometry x="-10" y="222.5" width="80" height="50" as="geometry" />
        </mxCell>
        <mxCell id="XlQ_gyAynb_7siddWxOq-3" value="«&lt;span style=&quot;background-color: initial;&quot;&gt;device&lt;/span&gt;»" style="verticalAlign=top;align=left;spacingTop=8;spacingLeft=2;spacingRight=12;shape=cube;size=10;direction=south;fontStyle=4;html=1;whiteSpace=wrap;" parent="1" vertex="1">
          <mxGeometry x="-20" y="300" width="110" height="100" as="geometry" />
        </mxCell>
        <mxCell id="XlQ_gyAynb_7siddWxOq-7" value="«&lt;span style=&quot;background-color: initial;&quot;&gt;device&lt;/span&gt;»" style="verticalAlign=top;align=left;spacingTop=8;spacingLeft=2;spacingRight=12;shape=cube;size=10;direction=south;fontStyle=4;html=1;whiteSpace=wrap;fillColor=#d5e8d4;strokeColor=#82b366;" parent="1" vertex="1">
          <mxGeometry x="390" y="360" width="129.5" height="90" as="geometry" />
        </mxCell>
        <mxCell id="XlQ_gyAynb_7siddWxOq-4" value="«artifact»&lt;br&gt;&lt;b&gt;MQTT Broker&lt;/b&gt;" style="html=1;whiteSpace=wrap;" parent="1" vertex="1">
          <mxGeometry x="-10" y="340" width="80" height="50" as="geometry" />
        </mxCell>
        <mxCell id="bxP-EH-jp1SR5SKdyFND-48" value="«artifact»&lt;br&gt;&lt;b&gt;Control Unit&lt;/b&gt;" style="html=1;whiteSpace=wrap;" parent="1" vertex="1">
          <mxGeometry x="404" y="400" width="95.5" height="40" as="geometry" />
        </mxCell>
        <mxCell id="XlQ_gyAynb_7siddWxOq-8" value="«&lt;span style=&quot;background-color: initial;&quot;&gt;device&lt;/span&gt;»" style="verticalAlign=top;align=left;spacingTop=8;spacingLeft=2;spacingRight=12;shape=cube;size=10;direction=south;fontStyle=4;html=1;whiteSpace=wrap;fillColor=#d5e8d4;strokeColor=#82b366;" parent="1" vertex="1">
          <mxGeometry x="229.5" y="360" width="125.5" height="90" as="geometry" />
        </mxCell>
        <mxCell id="XlQ_gyAynb_7siddWxOq-9" value="«artifact»&lt;br&gt;&lt;b&gt;Control Unit&lt;/b&gt;" style="html=1;whiteSpace=wrap;" parent="1" vertex="1">
          <mxGeometry x="239.5" y="400" width="95.5" height="40" as="geometry" />
        </mxCell>
        <mxCell id="XlQ_gyAynb_7siddWxOq-10" value="" style="endArrow=block;html=1;rounded=0;exitX=0;exitY=0;exitDx=72.5;exitDy=320;exitPerimeter=0;entryX=0;entryY=0;entryDx=145;entryDy=0;entryPerimeter=0;edgeStyle=orthogonalEdgeStyle;endFill=1;" parent="1" source="bxP-EH-jp1SR5SKdyFND-1" target="XlQ_gyAynb_7siddWxOq-5" edge="1">
          <mxGeometry width="50" height="50" relative="1" as="geometry">
            <mxPoint x="-120" y="420" as="sourcePoint" />
            <mxPoint x="-70" y="370" as="targetPoint" />
            <Array as="points">
              <mxPoint x="150" y="398" />
              <mxPoint x="150" y="265" />
            </Array>
          </mxGeometry>
        </mxCell>
        <mxCell id="XlQ_gyAynb_7siddWxOq-12" value="MQTT Pub" style="edgeLabel;html=1;align=center;verticalAlign=middle;resizable=0;points=[];" parent="XlQ_gyAynb_7siddWxOq-10" vertex="1" connectable="0">
          <mxGeometry x="0.0624" y="-2" relative="1" as="geometry">
            <mxPoint x="-12" y="106" as="offset" />
          </mxGeometry>
        </mxCell>
        <mxCell id="XlQ_gyAynb_7siddWxOq-11" value="" style="endArrow=none;html=1;rounded=0;exitX=0.497;exitY=1.006;exitDx=0;exitDy=0;exitPerimeter=0;endFill=0;startArrow=block;startFill=1;entryX=0.386;entryY=0.087;entryDx=0;entryDy=0;entryPerimeter=0;" parent="1" edge="1" target="bxP-EH-jp1SR5SKdyFND-37">
          <mxGeometry width="50" height="50" relative="1" as="geometry">
            <mxPoint x="-40.000000000000036" y="264.5000000000001" as="sourcePoint" />
            <mxPoint x="-116" y="265" as="targetPoint" />
          </mxGeometry>
        </mxCell>
        <mxCell id="XlQ_gyAynb_7siddWxOq-13" value="MQTT Sub" style="edgeLabel;html=1;align=center;verticalAlign=middle;resizable=0;points=[];" parent="XlQ_gyAynb_7siddWxOq-11" vertex="1" connectable="0">
          <mxGeometry x="-0.0116" y="1" relative="1" as="geometry">
            <mxPoint x="-17" y="-18" as="offset" />
          </mxGeometry>
        </mxCell>
        <mxCell id="UV0Z9gBOr8nxYHlWARJG-1" value="" style="endArrow=block;html=1;rounded=0;edgeStyle=orthogonalEdgeStyle;endFill=1;" edge="1" parent="1" target="XlQ_gyAynb_7siddWxOq-5">
          <mxGeometry width="50" height="50" relative="1" as="geometry">
            <mxPoint x="-110" y="550" as="sourcePoint" />
            <mxPoint x="-70" y="370" as="targetPoint" />
            <Array as="points">
              <mxPoint x="-70" y="550" />
              <mxPoint x="-70" y="288" />
            </Array>
          </mxGeometry>
        </mxCell>
        <mxCell id="UV0Z9gBOr8nxYHlWARJG-2" value="MQTT Sub" style="edgeLabel;html=1;align=center;verticalAlign=middle;resizable=0;points=[];" vertex="1" connectable="0" parent="UV0Z9gBOr8nxYHlWARJG-1">
          <mxGeometry x="-0.1488" y="2" relative="1" as="geometry">
            <mxPoint x="42" y="1" as="offset" />
          </mxGeometry>
        </mxCell>
        <mxCell id="UV0Z9gBOr8nxYHlWARJG-7" value="" style="endArrow=block;html=1;rounded=0;edgeStyle=orthogonalEdgeStyle;endFill=1;" edge="1" parent="1" target="XlQ_gyAynb_7siddWxOq-5">
          <mxGeometry width="50" height="50" relative="1" as="geometry">
            <mxPoint x="180" y="50" as="sourcePoint" />
            <mxPoint x="50" y="290" as="targetPoint" />
            <Array as="points">
              <mxPoint x="180" y="50" />
              <mxPoint x="150" y="50" />
              <mxPoint x="150" y="242" />
            </Array>
          </mxGeometry>
        </mxCell>
        <mxCell id="UV0Z9gBOr8nxYHlWARJG-8" value="MQTT Sub" style="edgeLabel;html=1;align=center;verticalAlign=middle;resizable=0;points=[];" vertex="1" connectable="0" parent="UV0Z9gBOr8nxYHlWARJG-7">
          <mxGeometry x="-0.3126" relative="1" as="geometry">
            <mxPoint x="-40" y="-37" as="offset" />
          </mxGeometry>
        </mxCell>
        <mxCell id="UV0Z9gBOr8nxYHlWARJG-9" value="" style="endArrow=classic;html=1;rounded=0;entryX=0.406;entryY=1.003;entryDx=0;entryDy=0;entryPerimeter=0;edgeStyle=orthogonalEdgeStyle;" edge="1" parent="1" source="bxP-EH-jp1SR5SKdyFND-57" target="XlQ_gyAynb_7siddWxOq-5">
          <mxGeometry width="50" height="50" relative="1" as="geometry">
            <mxPoint x="-80" y="50" as="sourcePoint" />
            <mxPoint x="50" y="70" as="targetPoint" />
            <Array as="points">
              <mxPoint x="-70" y="50" />
              <mxPoint x="-70" y="238" />
            </Array>
          </mxGeometry>
        </mxCell>
        <mxCell id="UV0Z9gBOr8nxYHlWARJG-10" value="MQTT Pub" style="edgeLabel;html=1;align=center;verticalAlign=middle;resizable=0;points=[];" vertex="1" connectable="0" parent="UV0Z9gBOr8nxYHlWARJG-9">
          <mxGeometry x="-0.6354" y="1" relative="1" as="geometry">
            <mxPoint x="39" y="5" as="offset" />
          </mxGeometry>
        </mxCell>
      </root>
    </mxGraphModel>
  </diagram>
</mxfile>
